<svg xmlns="http://www.w3.org/2000/svg" xmlns:xlink="http://www.w3.org/1999/xlink" version="1.1" x="0px" y="0px" viewBox="0 0 100 125" enable-background="new 0 0 100 100" xml:space="preserve"><g><path d="M54.14,5H46.16c-1.068,0-1.934,0.866-1.934,1.934v16.699c0,1.068,0.866,1.934,1.934,1.934h7.979   c1.068,0,1.934-0.866,1.934-1.934V6.934C56.074,5.866,55.208,5,54.14,5z M50.15,24.779c-0.367,0-0.665-0.297-0.665-0.665   c0-0.367,0.297-0.665,0.665-0.665c0.367,0,0.665,0.297,0.665,0.665C50.815,24.482,50.517,24.779,50.15,24.779z M55.59,20.742   c0,0.981-0.795,1.776-1.777,1.776h-7.328c-0.981,0-1.777-0.795-1.777-1.776V7.34c0-0.981,0.795-1.777,1.777-1.777h7.328   c0.981,0,1.777,0.795,1.777,1.777V20.742z"/><path d="M58.044,27.303h-15.79c-1.466,0-2.655,1.189-2.655,2.655V52.88c0,1.467,1.189,2.656,2.655,2.656h15.79   c1.467,0,2.656-1.189,2.656-2.656V29.958C60.7,28.492,59.511,27.303,58.044,27.303z M50.15,54.748   c-0.367,0-0.665-0.297-0.665-0.665c0-0.367,0.297-0.665,0.665-0.665c0.367,0,0.665,0.297,0.665,0.665   C50.815,54.45,50.517,54.748,50.15,54.748z M59.895,49.959c0,1.354-1.098,2.453-2.453,2.453H42.858   c-1.355,0-2.453-1.099-2.453-2.453V30.722c0-1.354,1.098-2.452,2.453-2.452h14.583c1.354,0,2.453,1.098,2.453,2.452V49.959z"/><path d="M70.134,57.271H30.165c-1.466,0-2.655,1.189-2.655,2.655v27.759c0,1.466,1.189,2.656,2.655,2.656h14.739l-0.678,2.932   c0,0.953,0.866,1.727,1.934,1.727h7.979c1.068,0,1.934-0.774,1.934-1.727l-0.678-2.932h14.738c1.467,0,2.655-1.189,2.655-2.656   V59.926C72.79,58.461,71.601,57.271,70.134,57.271z M50.15,89.552c-0.367,0-0.665-0.297-0.665-0.665   c0-0.367,0.297-0.665,0.665-0.665c0.367,0,0.665,0.298,0.665,0.665C50.815,89.255,50.517,89.552,50.15,89.552z M70.768,84.353   c0,1.336-1.082,2.418-2.418,2.418h-36.4c-1.335,0-2.418-1.082-2.418-2.418V60.956c0-1.335,1.083-2.418,2.418-2.418h36.4   c1.336,0,2.418,1.083,2.418,2.418V84.353z"/><g><path d="M41.479,13.296l-0.05,0c-0.759,0.002-1.373,0.62-1.371,1.379c0.002,0.758,0.617,1.371,1.375,1.371    c0.001,0,0.003,0,0.004,0l0.042,0c0.759,0,1.375-0.616,1.375-1.375S42.239,13.296,41.479,13.296z"/><path d="M36.77,13.822l-0.095,0.024c-0.735,0.191-1.176,0.941-0.985,1.676c0.161,0.619,0.719,1.03,1.33,1.03    c0.114,0,0.231-0.014,0.346-0.044l0.075-0.019c0.736-0.185,1.183-0.932,0.998-1.669C38.253,14.084,37.506,13.637,36.77,13.822z"/><path d="M30.966,22.442c0.058,0.007,0.116,0.011,0.173,0.011c0.683,0,1.275-0.508,1.362-1.204l0.009-0.07    c0.104-0.752-0.422-1.446-1.174-1.55c-0.752-0.104-1.446,0.422-1.55,1.174c-0.005,0.034-0.009,0.069-0.014,0.103    C29.679,21.66,30.213,22.348,30.966,22.442z"/><path d="M33.104,18.564c0.336,0,0.673-0.123,0.938-0.37c0.017-0.015,0.033-0.031,0.05-0.046c0.562-0.511,0.604-1.38,0.093-1.942    c-0.511-0.562-1.38-0.604-1.942-0.093c-0.026,0.024-0.052,0.048-0.078,0.072c-0.555,0.518-0.584,1.389-0.066,1.943    C32.37,18.418,32.736,18.564,33.104,18.564z"/><path d="M31.739,23.996c-0.165-0.003-0.334,0.022-0.499,0.083c-0.342,0.125-0.603,0.373-0.754,0.675l-2.718,1.644l7.206,3.967    l-0.166-8.224L31.739,23.996z"/><path d="M58.571,13.296l-0.05,0c-0.759,0-1.375,0.616-1.375,1.375s0.616,1.375,1.375,1.375l0.042,0c0.001,0,0.003,0,0.004,0    c0.757,0,1.373-0.613,1.375-1.371C59.944,13.916,59.33,13.298,58.571,13.296z"/><path d="M65.958,18.194c0.265,0.248,0.602,0.37,0.938,0.37c0.367,0,0.734-0.146,1.005-0.436c0.518-0.555,0.489-1.425-0.066-1.943    c-0.026-0.024-0.052-0.048-0.078-0.072c-0.562-0.511-1.431-0.469-1.942,0.093c-0.511,0.562-0.469,1.431,0.093,1.942    C65.925,18.163,65.941,18.178,65.958,18.194z"/><path d="M67.489,21.178l0.009,0.069c0.086,0.696,0.679,1.206,1.363,1.206c0.056,0,0.113-0.003,0.171-0.011    c0.753-0.093,1.289-0.78,1.195-1.534c-0.004-0.035-0.009-0.069-0.014-0.104c-0.103-0.752-0.795-1.279-1.549-1.176    C67.912,19.733,67.386,20.426,67.489,21.178z"/><path d="M62.634,16.508c0.116,0.03,0.232,0.044,0.346,0.044c0.611,0,1.169-0.411,1.33-1.03c0.191-0.735-0.25-1.485-0.985-1.676    l-0.095-0.024c-0.737-0.185-1.484,0.262-1.669,0.998c-0.185,0.736,0.262,1.483,0.998,1.669L62.634,16.508z"/><path d="M69.514,24.754c-0.149-0.298-0.406-0.543-0.742-0.67c-0.168-0.064-0.341-0.091-0.511-0.088l-3.068-1.855l-0.166,8.224    l7.206-3.967L69.514,24.754z"/><path d="M36.643,38.184h-0.046c-0.759,0-1.375,0.616-1.375,1.375s0.616,1.375,1.375,1.375h0.046c0.759,0,1.375-0.616,1.375-1.375    S37.403,38.184,36.643,38.184z"/><path d="M28.268,43.452c0.336,0,0.673-0.123,0.938-0.37c0.017-0.015,0.033-0.031,0.05-0.046c0.562-0.511,0.604-1.38,0.093-1.942    c-0.511-0.562-1.38-0.604-1.942-0.093c-0.026,0.024-0.052,0.048-0.078,0.072c-0.555,0.518-0.584,1.389-0.066,1.943    C27.534,43.306,27.9,43.452,28.268,43.452z"/><path d="M26.13,47.33c0.058,0.007,0.116,0.011,0.173,0.011c0.683,0,1.275-0.508,1.362-1.204l0.009-0.069    c0.104-0.752-0.421-1.446-1.173-1.55c-0.752-0.104-1.446,0.421-1.55,1.173c-0.005,0.035-0.009,0.069-0.014,0.104    C24.843,46.548,25.377,47.236,26.13,47.33z"/><path d="M31.934,38.71l-0.095,0.024c-0.735,0.191-1.176,0.941-0.985,1.676c0.161,0.619,0.719,1.03,1.33,1.03    c0.114,0,0.231-0.014,0.346-0.044l0.075-0.019c0.736-0.185,1.183-0.932,0.998-1.669C33.417,38.972,32.67,38.525,31.934,38.71z"/><path d="M26.903,48.885c-0.165-0.003-0.333,0.022-0.497,0.082c-0.343,0.125-0.604,0.373-0.756,0.675l-2.718,1.644l7.206,3.967    l-0.166-8.224L26.903,48.885z"/><path d="M63.402,38.184h-0.046c-0.759,0-1.375,0.616-1.375,1.375s0.616,1.375,1.375,1.375h0.046c0.759,0,1.375-0.616,1.375-1.375    S64.162,38.184,63.402,38.184z"/><path d="M70.651,41.094c-0.511,0.562-0.469,1.431,0.093,1.942c0.017,0.015,0.033,0.031,0.05,0.046    c0.265,0.248,0.602,0.37,0.938,0.37c0.367,0,0.734-0.146,1.005-0.436c0.518-0.555,0.489-1.425-0.066-1.943    c-0.026-0.024-0.052-0.048-0.078-0.072C72.031,40.49,71.162,40.532,70.651,41.094z"/><path d="M72.325,46.066l0.009,0.07c0.086,0.696,0.679,1.206,1.363,1.206c0.056,0,0.113-0.003,0.171-0.011    c0.753-0.093,1.289-0.78,1.195-1.534c-0.004-0.035-0.009-0.069-0.014-0.103c-0.103-0.752-0.795-1.28-1.548-1.176    C72.748,44.62,72.222,45.314,72.325,46.066z"/><path d="M68.161,38.734l-0.095-0.024c-0.737-0.185-1.484,0.262-1.669,0.998c-0.185,0.736,0.262,1.483,0.998,1.669l0.075,0.019    c0.116,0.03,0.232,0.044,0.346,0.044c0.611,0,1.169-0.411,1.33-1.03C69.337,39.676,68.896,38.925,68.161,38.734z"/><path d="M74.35,49.642c-0.151-0.301-0.411-0.548-0.752-0.674c-0.165-0.061-0.335-0.087-0.501-0.084l-3.068-1.855l-0.166,8.224    l7.206-3.967L74.35,49.642z"/></g></g><text x="0" y="115" fill="#000000" font-size="5px" font-weight="bold" font-family="'Helvetica Neue', Helvetica, Arial-Unicode, Arial, Sans-serif">Created by Mat Rutherford</text><text x="0" y="120" fill="#000000" font-size="5px" font-weight="bold" font-family="'Helvetica Neue', Helvetica, Arial-Unicode, Arial, Sans-serif">from the Noun Project</text></svg>