<svg xmlns="http://www.w3.org/2000/svg" xmlns:xlink="http://www.w3.org/1999/xlink" version="1.1" x="0px" y="0px" viewBox="0 0 91 113.75" enable-background="new 0 0 91 91" xml:space="preserve"><line fill="none" x1="34.806" y1="9.279" x2="31.821" y2="9.279"/><circle fill="#000000" cx="23.094" cy="64.485" r="0.607"/><g><path fill="none" d="M12.222,63.171c-0.616,0-1.117,0.501-1.117,1.117c0,0.615,0.501,1.116,1.117,1.116s1.117-0.501,1.117-1.116   C13.339,63.672,12.838,63.171,12.222,63.171z"/><circle cx="12.222" cy="64.288" r="0.612"/></g><g><path fill="none" d="M49.303,63.642v-3.623h-9.656v3.623l-0.412,0.393c-0.033,0.032-0.227,0.215-0.548,0.468h11.576   c-0.32-0.253-0.514-0.436-0.548-0.467L49.303,63.642z"/><path d="M68.764,23.364H20.285c-0.652,0-1.182,0.529-1.182,1.182v10.149h2.07v-9.229h46.244v27.589H29.269v2.361h39.446v3.37   H29.269v1.231h9.048v3.054c0,0-2.167,2.069-4.73,2.168v0.591h21.775V65.24c-2.562-0.099-4.729-2.168-4.729-2.168v-3.054h18.13   c0.654,0,1.182-0.529,1.182-1.183v-3.58v-30.71C69.945,23.893,69.418,23.364,68.764,23.364z M38.688,64.502   c0.321-0.253,0.515-0.436,0.548-0.468l0.412-0.393v-3.623h9.656v3.623l0.413,0.394c0.034,0.031,0.228,0.214,0.548,0.467H38.688z"/></g><g><g><path d="M85.926,36.567c0-0.652-0.53-1.182-1.184-1.182H70.636v1.905h13.976v24.142H51.323v1.496h34.603V36.567z"/></g><path d="M89.669,63.663c0,0-37.071-0.014-37.045,0c0.759,0.438,1.734,0.849,2.767,0.888l0.662,0.026v0.663h33.616   c0.436,0,0.789-0.354,0.789-0.788C90.458,64.017,90.104,63.663,89.669,63.663z"/></g><path d="M22.634,35.385H1.745c-0.652,0-1.182,0.53-1.182,1.182v28.083c0,0.653,0.53,1.182,1.182,1.182h15.943  c-0.206-0.346-0.325-0.751-0.325-1.182v-1.742H3.289V38.21h18.393v5.501h2.135v-7.144C23.817,35.915,23.287,35.385,22.634,35.385z   M12.222,63.171c0.616,0,1.117,0.501,1.117,1.117c0,0.615-0.501,1.116-1.117,1.116s-1.117-0.501-1.117-1.116  C11.105,63.672,11.606,63.171,12.222,63.171z M14.103,37.11h-3.736c-0.168,0-0.304-0.136-0.304-0.304s0.136-0.304,0.304-0.304h3.736  c0.168,0,0.304,0.136,0.304,0.304S14.271,37.11,14.103,37.11z"/><path fill="#000000" d="M27.397,44.45h-8.179c-0.653,0-1.182,0.53-1.182,1.182v19.018c0,0.653,0.529,1.182,1.182,1.182h8.179  c0.652,0,1.182-0.528,1.182-1.182V45.632C28.579,44.979,28.049,44.45,27.397,44.45z M21.226,45.5h3.736  c0.168,0,0.304,0.136,0.304,0.304s-0.136,0.304-0.304,0.304h-3.736c-0.168,0-0.304-0.136-0.304-0.304S21.058,45.5,21.226,45.5z   M23.094,65.603c-0.616,0-1.117-0.501-1.117-1.117s0.501-1.117,1.117-1.117c0.615,0,1.116,0.501,1.116,1.117  S23.709,65.603,23.094,65.603z M27.396,62.907h-8.475V46.969h8.475V62.907z"/><text x="0" y="106" fill="#000000" font-size="5px" font-weight="bold" font-family="'Helvetica Neue', Helvetica, Arial-Unicode, Arial, Sans-serif">Created by Korawan.M</text><text x="0" y="111" fill="#000000" font-size="5px" font-weight="bold" font-family="'Helvetica Neue', Helvetica, Arial-Unicode, Arial, Sans-serif">from the Noun Project</text></svg>