<svg xmlns="http://www.w3.org/2000/svg" xmlns:xlink="http://www.w3.org/1999/xlink" version="1.1" id="Your_Icon" x="0px" y="0px" width="100px" height="100px" viewBox="5.0 -10.0 100.0 135.0" enable-background="new 0 0 100 100" xml:space="preserve">
<path d="M49.75,3.464l2.77,1.599v4.106v5.197l4.5-2.599l3.555-2.053l2.77,1.599v3.198l-9.325,5.384l-1.5,0.866v1.732v17.514v5.196  l4.5-2.598l15.168-8.757l1.5-0.866V31.25V20.482l2.769-1.599l2.769,1.599v4.106v5.196l4.5-2.598l3.556-2.053l2.769,1.599v3.198  l-3.556,2.053l-4.5,2.598l4.5,2.598l3.556,2.053v3.198l-2.769,1.599l-9.325-5.384l-1.5-0.866l-1.5,0.866l-15.169,8.757L55.288,50  l4.5,2.598l15.169,8.758l1.5,0.866l1.5-0.866l9.325-5.384l2.769,1.598v3.198l-3.556,2.053l-4.5,2.598l4.5,2.598l3.556,2.053v3.198  l-2.769,1.599l-3.556-2.054l-4.5-2.599v5.197v4.107l-2.769,1.599l-2.769-1.599V68.75v-1.732l-1.5-0.866L57.02,57.394l-4.5-2.598  v5.196v17.515v1.732l1.5,0.866l9.325,5.384v3.198l-2.77,1.599l-3.555-2.053l-4.5-2.599v5.197v4.106l-2.77,1.599l-2.769-1.599v-4.106  v-5.196l-4.5,2.598l-3.556,2.053l-2.769-1.599v-3.198l9.325-5.384l1.5-0.866v-1.732V59.992v-5.196l-4.5,2.598l-15.168,8.758  l-1.5,0.866v1.732v10.768l-2.77,1.599l-2.769-1.599v-4.107v-5.197l-4.5,2.599l-3.556,2.054l-2.769-1.599V70.07l3.556-2.053  l4.5-2.598l-4.5-2.598l-3.556-2.053V57.57l2.769-1.598l9.325,5.384l1.5,0.866l1.5-0.866l15.169-8.758l4.5-2.598l-4.5-2.598  l-15.169-8.757l-1.5-0.866l-1.5,0.866l-9.325,5.384L9.449,42.43v-3.198l3.556-2.053l4.5-2.598l-4.5-2.598L9.449,29.93v-3.198  l2.769-1.599l3.556,2.053l4.5,2.598v-5.196v-4.106l2.769-1.599l2.77,1.599V31.25v1.732l1.5,0.866l15.168,8.757l4.5,2.598v-5.196  V22.493v-1.732l-1.5-0.866l-9.325-5.384v-3.198l2.769-1.599l3.556,2.053l4.5,2.598V9.169V5.063L49.75,3.464 M49.75,0l-5.769,3.331  v5.838L38.925,6.25l-5.769,3.331v6.662l10.825,6.25v17.514L28.813,31.25v-12.5l-5.77-3.331l-5.769,3.331v5.838l-5.056-2.919  L6.449,25v6.662l5.056,2.919L6.449,37.5v6.662l5.769,3.331l10.825-6.25L38.212,50l-15.169,8.758l-10.825-6.25l-5.769,3.33V62.5  l5.056,2.919l-5.056,2.919V75l5.769,3.331l5.056-2.92v5.839l5.769,3.331l5.77-3.331v-12.5l15.168-8.758v17.515l-10.825,6.25v6.662  l5.769,3.331l5.056-2.919v5.838L49.75,100l5.77-3.331v-5.838l5.055,2.919l5.77-3.331v-6.662l-10.825-6.25V59.992l15.168,8.758v12.5  l5.769,3.331l5.769-3.331v-5.839l5.056,2.92L93.051,75v-6.662l-5.056-2.919l5.056-2.919v-6.662l-5.769-3.33l-10.825,6.25L61.288,50  l15.169-8.757l10.825,6.25l5.769-3.331V37.5l-5.056-2.919l5.056-2.919V25l-5.769-3.331l-5.056,2.919V18.75l-5.769-3.331  l-5.769,3.331v12.5L55.52,40.007V22.493l10.825-6.25V9.581l-5.77-3.331L55.52,9.169V3.331L49.75,0L49.75,0z"/>
<text x="0.0" y="117.5" font-size="5.0" font-weight="bold" font-family="Helvetica Neue, Helvetica, Arial-Unicode, Arial, Sans-serif" fill="#000000">Created by misirlou</text><text x="0.0" y="122.5" font-size="5.0" font-weight="bold" font-family="Helvetica Neue, Helvetica, Arial-Unicode, Arial, Sans-serif" fill="#000000">from the Noun Project</text></svg>