<svg xmlns="http://www.w3.org/2000/svg" xmlns:xlink="http://www.w3.org/1999/xlink" version="1.1" x="0px" y="0px" viewBox="0 0 100 125" enable-background="new 0 0 100 100" xml:space="preserve"><path d="M69.845,77.128c0,0.708-0.615,1.281-1.373,1.281H57.52c-0.758,0-1.373-0.573-1.373-1.281V71.09  c0-0.706,0.615-1.279,1.373-1.279h10.952c0.758,0,1.373,0.573,1.373,1.279V77.128z"/><polygon points="70.779,91.147 69.193,80.174 56.869,80.174 55.286,91.147 52.307,91.147 52.307,95 73.685,95 73.685,91.147 "/><path d="M44.66,77.128c0,0.708-0.614,1.281-1.375,1.281H32.336c-0.756,0-1.375-0.573-1.375-1.281V71.09  c0-0.706,0.62-1.279,1.375-1.279h10.948c0.761,0,1.375,0.573,1.375,1.279V77.128z"/><polygon points="45.557,91.147 43.975,80.174 31.649,80.174 30.063,91.147 27.124,91.147 27.124,95 48.503,95 48.503,91.147 "/><path d="M66.942,68.118V63.47h6.188c0.708,0,1.282-0.572,1.282-1.282v-7.533c0-0.709-0.574-1.281-1.282-1.281H27.657  c-0.71,0-1.281,0.572-1.281,1.281v7.533c0,0.71,0.571,1.282,1.281,1.282h6.208v4.648h7.894V63.47h17.29v4.648H66.942z"/><path d="M63.754,5H37.238c-0.83,0-1.503,0.674-1.503,1.501v15.414c0,0.831,0.673,1.5,1.503,1.5h26.516  c0.829,0,1.502-0.669,1.502-1.5V6.502C65.256,5.674,64.583,5,63.754,5z M43.434,16.366c-2.096,0-3.794-1.7-3.794-3.793  c0-2.096,1.699-3.795,3.794-3.795c2.094,0,3.794,1.699,3.794,3.795C47.228,14.667,45.527,16.366,43.434,16.366z M57.559,16.366  c-2.096,0-3.797-1.7-3.797-3.793c0-2.096,1.701-3.795,3.797-3.795c2.095,0,3.793,1.699,3.793,3.795  C61.352,14.667,59.653,16.366,57.559,16.366z"/><path d="M34.759,19.396h-0.996c-0.707,0-1.279-0.573-1.279-1.28v-7.814c0-0.709,0.573-1.282,1.279-1.282h0.996V19.396z"/><path d="M31.725,17.693h-0.701c-0.707,0-1.281-0.575-1.281-1.281v-4.406c0-0.707,0.575-1.28,1.281-1.28h0.701V17.693z"/><path d="M66.025,19.396h0.996c0.708,0,1.28-0.573,1.28-1.28v-7.814c0-0.709-0.572-1.282-1.28-1.282h-0.996V19.396z"/><path d="M69.062,17.693h0.699c0.706,0,1.283-0.575,1.283-1.281v-4.406c0-0.707-0.577-1.28-1.283-1.28h-0.699V17.693z"/><path d="M87.272,55.575v-14.37c0-6.707-5.461-12.166-12.169-12.166h-0.691v-0.777c0-0.707-0.574-1.281-1.282-1.281H27.657  c-0.71,0-1.281,0.575-1.281,1.281v0.777h-0.693c-6.707,0-12.167,5.459-12.167,12.166v14.37c-2.596,1.102-4.426,3.676-4.426,6.671  h2.316c0-2.724,2.21-4.93,4.932-4.93c2.719,0,4.929,2.206,4.929,4.93h2.314c0-2.948-1.771-5.482-4.3-6.612V41.205  c0-3.534,2.865-6.404,6.401-6.404h0.693v14.732c0,0.709,0.571,1.279,1.281,1.279H73.13c0.708,0,1.282-0.57,1.282-1.279V34.801h0.691  c3.536,0,6.403,2.87,6.403,6.404v14.429c-2.53,1.13-4.302,3.664-4.302,6.612h2.312c0-2.724,2.21-4.93,4.934-4.93  c2.722,0,4.932,2.206,4.932,4.93h2.314C91.697,59.251,89.868,56.677,87.272,55.575z M43.262,46.092h-2.568v-8.698h2.568V46.092z   M47.472,46.092h-2.572v-8.698h2.572V46.092z M51.678,46.092h-2.569v-8.698h2.569V46.092z M55.883,46.092h-2.568v-8.698h2.568  V46.092z M60.094,46.092h-2.57v-8.698h2.57V46.092z"/><text x="0" y="115" fill="#000000" font-size="5px" font-weight="bold" font-family="'Helvetica Neue', Helvetica, Arial-Unicode, Arial, Sans-serif">Created by Aaron K. Kim</text><text x="0" y="120" fill="#000000" font-size="5px" font-weight="bold" font-family="'Helvetica Neue', Helvetica, Arial-Unicode, Arial, Sans-serif">from the Noun Project</text></svg>