<?xml version="1.0" encoding="UTF-8" standalone="no"?>
<svg width="38px" height="56px" viewBox="0 0 38 56" version="1.1" xmlns="http://www.w3.org/2000/svg" xmlns:xlink="http://www.w3.org/1999/xlink">
    <!-- Generator: Sketch 39.1 (31720) - http://www.bohemiancoding.com/sketch -->
    <title>Shape</title>
    <desc>Created with Sketch.</desc>
    <defs></defs>
    <g id="Page-1" stroke="none" stroke-width="1" fill="none" fill-rule="evenodd">
        <g id="Desktop-HD" transform="translate(-1228.000000, -810.000000)" fill="#000000">
            <g id="Card-6" transform="translate(1059.000000, 784.000000)">
                <g id="noun_97578" transform="translate(169.000000, 26.000000)">
                    <path d="M9.05933031,41.24 L15.2090755,47.832 L12.3224604,51.8 L12.1342029,50.072 L0.776,55.512 L8.18079528,44.632 L3.5371101,44.184 L9.05933031,41.24 L9.05933031,41.24 Z M35.3526288,33.88 C34.2858363,36.184 32.6542712,38.424 30.7716961,40.344 C29.2656361,44.888 26.755536,52.44 26.755536,52.44 L26.5672785,53.08 L20.4175332,46.488 C19.4134932,46.744 18.0329382,47.128 16.5896306,47.32 L16.4013731,47.32 L9.87511284,40.408 L9.93786535,40.216 C10.1888754,38.808 10.6281429,37.4 10.9419054,36.376 L4.72940765,29.784 L5.35693267,29.592 C5.35693267,29.592 12.887233,27.352 17.4054131,26.008 L17.4681656,26.008 C19.4134932,24.216 21.6725833,22.616 23.9944259,21.656 C26.881041,20.376 31.0227061,19.16 34.0348263,19.544 C35.1016188,19.672 35.9801538,20.056 36.6704314,20.568 C36.7331839,20.632 36.9214414,20.76 36.9214414,20.76 L36.9841939,20.824 C37.0469464,20.888 37.1096989,21.016 37.1724514,21.08 C39.5570465,24.6 36.1056588,32.344 35.3526288,33.88 L35.3526288,33.88 Z M11.0046579,35.352 C12.0714504,32.344 13.8285205,29.592 16.0876106,27.16 C12.4479654,28.248 7.80428027,29.656 6.1099627,30.168 L11.0046579,35.352 L11.0046579,35.352 Z M29.5793986,41.56 C27.132051,43.736 24.3081884,45.4 21.3588208,46.36 L26.253516,51.544 C26.8182885,49.88 28.387101,45.208 29.5793986,41.56 L29.5793986,41.56 Z M36.3566688,21.464 C36.2939163,21.4 36.2311638,21.336 36.2311638,21.272 C36.1684113,21.208 36.1056588,21.144 36.0429063,21.08 C35.4781338,20.632 34.7251038,20.312 33.7838162,20.184 C30.9599536,19.8 27.006546,21.016 24.1826834,22.232 C21.9235933,23.256 19.4762457,24.92 17.5936706,26.776 C14.895313,29.4 12.887233,32.6 11.8204404,36.056 C11.5066779,37.016 11.0674104,38.552 10.7536479,40.088 L16.7151356,46.424 C18.2211957,46.168 19.7272557,45.784 20.6685433,45.528 C24.0571784,44.568 27.3203085,42.648 30.0186661,40.024 C31.9639937,38.168 33.6583112,35.736 34.7251038,33.496 C37.7372239,27.16 37.4862139,23.064 36.3566688,21.464 L36.3566688,21.464 Z M35.2898763,22.488 C36.8586889,24.6 34.8506088,29.08 34.4113413,29.976 C33.7838162,31.32 32.7797762,32.728 31.5874787,33.88 C30.0186661,35.416 28.0733385,36.568 26.0652585,37.144 C25.5004859,37.336 24.5591984,37.528 23.6179109,37.656 L23.3669009,37.72 L19.5389982,33.624 L19.6017507,33.368 C19.7900082,32.408 20.0410182,31.512 20.2292757,30.936 C20.8568008,28.888 22.0490983,26.968 23.6806634,25.432 C24.8102084,24.28 26.1907635,23.384 27.5713185,22.744 C28.387101,22.36 31.1482111,21.272 33.3445487,21.528 C33.9720738,21.592 34.5368463,21.848 34.9761138,22.168 C35.0388663,22.232 35.1643713,22.296 35.1643713,22.296 L35.1643713,22.296 C35.2271238,22.36 35.2898763,22.424 35.2898763,22.488 L35.2898763,22.488 Z M34.5368463,23.064 L34.4740938,23 L34.4113413,22.936 C34.1603313,22.68 33.7210637,22.552 33.2817962,22.488 C31.7757362,22.296 29.5793986,22.936 28.010586,23.64 C26.755536,24.216 25.4377334,25.112 24.3709409,26.136 C22.8648808,27.608 21.7980883,29.336 21.1705633,31.256 C20.9823058,31.768 20.7940483,32.536 20.6057907,33.368 L23.8061684,36.76 C24.6219509,36.632 25.3749809,36.44 25.8770009,36.248 C27.759576,35.736 29.5166461,34.648 31.0227061,33.176 C32.0894987,32.152 33.0307862,30.808 33.5955587,29.592 C34.4113413,27.8 35.6036388,24.472 34.5368463,23.064 L34.5368463,23.064 Z M16.0248581,11.416 C17.5309181,11.8 18.9742257,11.992 20.1037707,11.992 C20.8568008,11.992 21.3588208,11.928 21.6725833,11.8 C21.9235933,8.984 20.1665232,6.296 17.3426606,5.528 C14.5815505,4.824 11.7576879,6.296 10.6281429,8.856 C11.1929154,9.496 12.9499855,10.648 16.0248581,11.416 L16.0248581,11.416 Z M10.4398854,12.952 C11.0046579,14.808 12.5107179,16.408 14.518798,16.92 C16.5268781,17.432 18.5349582,16.792 19.9155132,15.448 C18.4722057,15.32 16.8406406,15.064 15.146323,14.616 C13.514758,14.232 11.8831929,13.656 10.4398854,12.952 L10.4398854,12.952 Z M10.2516279,8.28 C8.6200628,8.344 7.49051775,8.728 7.30226025,9.432 C6.92574523,10.84 10.5026379,13.016 15.271828,14.232 C20.0410182,15.448 24.1826834,15.32 24.5591984,13.848 C24.7474559,13.144 23.9316734,12.248 22.5511183,11.416 L22.5511183,11.544 C22.3001083,12.568 19.3507407,12.632 15.8993531,11.736 C12.5107179,10.84 9.93786535,9.304 10.1888754,8.344 C10.1888754,8.344 10.1888754,8.344 10.2516279,8.28 L10.2516279,8.28 Z M29.7049036,13.464 L30.8344486,12.888 L31.9639937,13.464 L31.7757362,12.184 L32.6542712,11.288 L31.3992212,11.096 L30.8344486,9.944 L30.2696761,11.096 L29.0146261,11.288 L29.8931611,12.184 L29.7049036,13.464 L29.7049036,13.464 Z M8.87107281,21.976 L8.43180529,21.144 L8.05529027,21.976 L7.11400274,22.104 L7.80428027,22.744 L7.67877526,23.64 L8.49455779,23.192 L9.31034032,23.64 L9.18483532,22.744 L9.87511284,22.104 L8.87107281,21.976 L8.87107281,21.976 Z M5.48243768,2.584 L6.29822021,2.136 L7.11400274,2.584 L6.98849773,1.688 L7.61602276,1.048 L6.67473522,0.92 L6.29822021,0.088 L5.85895269,0.92 L4.98041766,1.048 L5.60794268,1.688 L5.48243768,2.584 L5.48243768,2.584 Z" id="Shape"></path>
                </g>
            </g>
        </g>
    </g>
</svg>